# xmcd CD database file
#
# Track frame offsets:
#	150
#	11780
#	50047
#	74107
#	95365
#	106900
#	128577
#	173060
#	201847
#
# Disc length: 2853 seconds
#
# Revision: 1
# Processed by: cddbd v1.5.1PL0 Copyright (c) Steve Scherf et al.
# Submitted via: CDex 1.51
#
DISCID=7d0b2309
DTITLE=Ruben Gonzalez - Introducing Ruben Gonzalez
DYEAR=1997
DGENRE=Jazz
TTITLE0=Enganadora
TTITLE1=Cumbanchero
TTITLE2=Tres Lindas Cubanas
TTITLE3=Melodia del Rio
TTITLE4=Mandinga
TTITLE5=Siboney
TTITLE6=Almendra
TTITLE7=Tumbao
TTITLE8=Cumo Siento Yo
EXTD=YEAR: 1997
EXTT0=
EXTT1=
EXTT2=
EXTT3=
EXTT4=
EXTT5=
EXTT6=
EXTT7=
EXTT8=
PLAYORDER=
